Coordinates
version=1
nRows=23
nColumns=38
inDegrees=no

Units are S.I. units (second, meters, Newtons, ...)
If the header above contains a line with 'inDegrees', this indicates whether rotational values are in degrees (yes) or radians (no).

endheader
time	pelvis_tilt	pelvis_list	pelvis_rotation	pelvis_tx	pelvis_ty	pelvis_tz	hip_flexion_r	hip_adduction_r	hip_rotation_r	knee_angle_r	ankle_angle_r	subtalar_angle_r	mtp_angle_r	hip_flexion_l	hip_adduction_l	hip_rotation_l	knee_angle_l	ankle_angle_l	subtalar_angle_l	mtp_angle_l	lumbar_extension	lumbar_bending	lumbar_rotation	arm_flex_r	arm_add_r	arm_rot_r	elbow_flex_r	pro_sup_r	wrist_flex_r	wrist_dev_r	arm_flex_l	arm_add_l	arm_rot_l	elbow_flex_l	pro_sup_l	wrist_flex_l	wrist_dev_l
1.19	0.104113	0.0131151	-0.0391566	0.935322	1.00007	-0.277019	0.329226	-0.12414	-0.0766705	1.11608	0.264333	0	0	-0.07752	0.0842404	0.0707452	0.22849	0.378938	0	0	-0.210895	-0.001822	-0.0118836	-0.0418655	-0.16551	-0.364369	0.777296	0.196029	0	0	0.0583772	-0.214975	-0.0243138	0.879786	0.948076	0	0
1.2	0.104176	0.00733839	-0.0330197	0.9463	1.00038	-0.277762	0.341118	-0.116056	-0.0865902	1.07352	0.266381	0	0	-0.09751	0.0779966	0.0803157	0.214654	0.380517	0	0	-0.21382	0.00625553	-0.0197257	-0.0479751	-0.164344	-0.371499	0.778956	0.196246	0	0	0.0688796	-0.219301	-0.013766	0.900244	0.943349	0	0
1.21	0.104541	0.00190348	-0.0264832	0.957202	1.00048	-0.278474	0.350784	-0.109095	-0.0983383	1.02715	0.268846	0	0	-0.117059	0.0717735	0.0867303	0.202054	0.382769	0	0	-0.217224	0.0138856	-0.0284348	-0.0530253	-0.162907	-0.378316	0.779415	0.19625	0	0	0.0785589	-0.223518	-0.00550722	0.921369	0.945698	0	0
1.22	0.1051	-0.00326043	-0.0192739	0.968235	1.00036	-0.279081	0.357543	-0.102737	-0.112116	0.976116	0.272569	0	0	-0.136568	0.0652439	0.0912216	0.190233	0.387136	0	0	-0.220485	0.0210382	-0.0378032	-0.0582626	-0.161099	-0.385202	0.780378	0.193996	0	0	0.0877954	-0.227974	0.00289597	0.940912	0.959775	0	0
1.23	0.105201	-0.00654155	-0.0122194	0.97928	0.999939	-0.279609	0.363939	-0.0987154	-0.126551	0.922838	0.272707	0	0	-0.155353	0.0605598	0.0974638	0.178917	0.389886	0	0	-0.223194	0.02602	-0.0471409	-0.0630981	-0.158643	-0.392219	0.781165	0.196137	0	0	0.0968501	-0.232864	0.0103193	0.962148	0.950788	0	0
1.24	0.105996	-0.0098253	-0.00641216	0.99051	0.999412	-0.279955	0.367566	-0.0940224	-0.141451	0.86557	0.273691	0	0	-0.175196	0.0556653	0.0985376	0.167259	0.394485	0	0	-0.226359	0.0307049	-0.0556166	-0.0670634	-0.156204	-0.399015	0.780755	0.193747	0	0	0.104327	-0.237732	0.0175559	0.983881	0.96538	0	0
1.25	0.105102	-0.0119207	-0.000468472	1.00165	0.998558	-0.280358	0.372127	-0.0905237	-0.160577	0.806455	0.273588	0	0	-0.192938	0.0521034	0.104193	0.155806	0.39738	0	0	-0.227603	0.0342269	-0.0646656	-0.0706479	-0.153694	-0.405306	0.779598	0.195979	0	0	0.111973	-0.242717	0.0253789	1.00466	0.956378	0	0
1.26	0.103525	-0.0139471	0.00434162	1.0129	0.997479	-0.280646	0.374869	-0.0856732	-0.171141	0.742333	0.271986	0	0	-0.209366	0.0487338	0.105971	0.145565	0.401144	0	0	-0.228116	0.0376023	-0.0729403	-0.0736143	-0.151435	-0.411298	0.777848	0.195944	0	0	0.118608	-0.247228	0.0328316	1.02329	0.959398	0	0
1.27	0.101592	-0.0157743	0.00814629	1.02438	0.996201	-0.28077	0.376172	-0.0806788	-0.186805	0.675796	0.270907	0	0	-0.224992	0.0457658	0.103521	0.136385	0.405129	0	0	-0.227755	0.0405581	-0.0801011	-0.0764063	-0.14903	-0.417586	0.775746	0.194491	0	0	0.12459	-0.250959	0.0389363	1.04129	0.970624	0	0
1.28	0.099132	-0.0176155	0.0134173	1.03579	0.994681	-0.281024	0.376694	-0.0765298	-0.208261	0.607675	0.265213	0	0	-0.239363	0.0424847	0.109181	0.128239	0.410101	0	0	-0.226828	0.0438085	-0.0884085	-0.0781907	-0.14644	-0.424384	0.772406	0.195859	0	0	0.13064	-0.254127	0.0433191	1.06004	0.965635	0	0
1.29	0.0961867	-0.0195238	0.0172021	1.04743	0.992931	-0.281128	0.376513	-0.0714288	-0.230437	0.538667	0.257833	0	0	-0.252213	0.0393506	0.108444	0.12243	0.416347	0	0	-0.224946	0.0469642	-0.095079	-0.0803312	-0.144459	-0.43047	0.768987	0.195849	0	0	0.135756	-0.256944	0.0483502	1.07727	0.968164	0	0
1.3	0.0929858	-0.0213274	0.0193517	1.05919	0.990995	-0.280966	0.375879	-0.0647965	-0.249831	0.470136	0.25268	0	0	-0.263433	0.0364073	0.100172	0.118638	0.423284	0	0	-0.222629	0.0496645	-0.0994611	-0.0831582	-0.142507	-0.436716	0.765935	0.194188	0	0	0.140809	-0.260135	0.0560999	1.09226	0.978498	0	0
1.31	0.0909738	-0.0229985	0.0213606	1.07118	0.989005	-0.280676	0.373069	-0.057822	-0.268976	0.403214	0.246161	0	0	-0.276569	0.0333565	0.0985321	0.114846	0.430139	0	0	-0.221052	0.0520406	-0.104068	-0.0848781	-0.1402	-0.443267	0.761428	0.195457	0	0	0.145341	-0.262412	0.0613549	1.10652	0.972782	0	0
1.32	0.0889596	-0.0245974	0.021871	1.08323	0.986869	-0.280218	0.369793	-0.0495392	-0.279348	0.338735	0.243764	0	0	-0.289187	0.0307473	0.0926057	0.111774	0.436491	0	0	-0.219157	0.0540512	-0.107725	-0.0856283	-0.138224	-0.448441	0.756259	0.195202	0	0	0.149501	-0.263466	0.0644736	1.11875	0.975315	0	0
1.33	0.0859507	-0.0259379	0.0217867	1.09527	0.984556	-0.279654	0.367615	-0.0410353	-0.282717	0.277966	0.245297	0	0	-0.299713	0.0284997	0.0839815	0.110846	0.442645	0	0	-0.216646	0.0557119	-0.109657	-0.0870139	-0.136513	-0.453405	0.75207	0.193451	0	0	0.154503	-0.263242	0.0679997	1.12784	0.983492	0	0
1.34	0.0837778	-0.0273323	0.0214672	1.10754	0.982312	-0.278986	0.362678	-0.0315031	-0.269825	0.218736	0.24753	0	0	-0.31111	0.0261947	0.0796622	0.110082	0.448551	0	0	-0.215124	0.0574148	-0.110866	-0.0884854	-0.134595	-0.459255	0.748152	0.194636	0	0	0.159736	-0.262082	0.0706737	1.13547	0.980682	0	0
1.35	0.0819076	-0.0288423	0.021153	1.12	0.980091	-0.278294	0.355633	-0.0217731	-0.242904	0.162193	0.250413	0	0	-0.32191	0.0241905	0.0677168	0.111744	0.457793	0	0	-0.21389	0.0594719	-0.11131	-0.0902462	-0.133024	-0.464994	0.744378	0.19058	0	0	0.164273	-0.26073	0.0748626	1.14031	0.99654	0	0
1.36	0.0798656	-0.0303987	0.0225031	1.13236	0.977892	-0.277742	0.348673	-0.0137978	-0.217989	0.112254	0.253057	0	0	-0.333442	0.0219271	0.0658499	0.111226	0.460134	0	0	-0.21253	0.0619555	-0.113129	-0.0907408	-0.131383	-0.470269	0.738762	0.194178	0	0	0.168533	-0.259274	0.0784026	1.14582	0.987108	0	0
1.37	0.0778022	-0.0326131	0.0229645	1.14475	0.975716	-0.27712	0.340588	-0.0057516	-0.182229	0.0673236	0.255126	0	0	-0.342144	0.0188037	0.0586093	0.11597	0.465366	0	0	-0.211106	0.0652218	-0.11363	-0.0906433	-0.13021	-0.475271	0.733217	0.193906	0	0	0.172744	-0.256977	0.0822446	1.14903	0.990281	0	0
1.38	0.0760996	-0.0351271	0.0236519	1.15725	0.973632	-0.276475	0.335351	0.0016437	-0.151257	0.0398531	0.264889	0	0	-0.348028	0.0148758	0.0462681	0.127549	0.474909	0	0	-0.209926	0.0689901	-0.114053	-0.0907217	-0.129526	-0.478732	0.728656	0.191005	0	0	0.176704	-0.254107	0.0860611	1.14964	1.00122	0	0
1.39	0.0745514	-0.0362648	0.025812	1.16981	0.97172	-0.275943	0.338333	0.00600481	-0.145439	0.0374723	0.272606	0	0	-0.353784	0.0117782	0.0470193	0.140081	0.475972	0	0	-0.208955	0.0716254	-0.116122	-0.0906615	-0.128568	-0.481119	0.724589	0.193499	0	0	0.179661	-0.251125	0.0883632	1.15035	0.995336	0	0
1.4	0.0735046	-0.0377804	0.0273867	1.18241	0.97002	-0.275308	0.345541	0.0105133	-0.149768	0.0523057	0.279318	0	0	-0.359195	0.00789546	0.0415295	0.154348	0.479088	0	0	-0.208588	0.074776	-0.116992	-0.0895109	-0.127575	-0.485445	0.718929	0.193697	0	0	0.18222	-0.247626	0.0912911	1.14868	0.996601	0	0
1.41	0.0737436	-0.0392299	0.0278239	1.19522	0.968565	-0.274512	0.352733	0.0152403	-0.154198	0.0793367	0.281516	0	0	-0.366042	0.0038627	0.0338792	0.168627	0.48227	0	0	-0.209233	0.0776707	-0.117683	-0.0875251	-0.126904	-0.487927	0.71249	0.191733	0	0	0.183058	-0.244045	0.0923361	1.14698	1.00253	0	0
